G75*
%MOIN*%
%OFA0B0*%
%FSLAX25Y25*%
%IPPOS*%
%LPD*%
%AMOC8*
5,1,8,0,0,1.08239X$1,22.5*
%
%ADD10R,0.03937X0.18110*%
%ADD11R,0.06299X0.13386*%
%ADD12R,0.04724X0.02165*%
%ADD13R,0.04724X0.02283*%
%ADD14R,0.07874X0.07874*%
%ADD15R,0.02600X0.08000*%
%ADD16R,0.03937X0.04528*%
%ADD17R,0.09843X0.04724*%
%ADD18R,0.04724X0.04724*%
%ADD19R,0.08000X0.02600*%
%ADD20R,0.01575X0.05512*%
%ADD21R,0.07087X0.05906*%
%ADD22R,0.09843X0.05906*%
%ADD23R,0.07098X0.06299*%
%ADD24R,0.04803X0.03583*%
%ADD25R,0.03937X0.04331*%
%ADD26R,0.04331X0.03937*%
%ADD27R,0.05906X0.06299*%
D10*
X0072860Y0040205D03*
X0080734Y0040205D03*
D11*
X0063411Y0019732D03*
X0090182Y0019732D03*
D12*
X0089057Y0055087D03*
X0078820Y0055087D03*
X0078820Y0058827D03*
X0078820Y0062567D03*
X0089057Y0062567D03*
D13*
X0039261Y0062173D03*
X0039261Y0056268D03*
X0039261Y0050362D03*
D14*
X0027056Y0056268D03*
D15*
X0129989Y0041612D03*
X0134989Y0041612D03*
X0139989Y0041612D03*
X0144989Y0041612D03*
X0144989Y0017412D03*
X0139989Y0017412D03*
X0134989Y0017412D03*
X0129989Y0017412D03*
D16*
X0120655Y0015736D03*
X0110812Y0015736D03*
X0100970Y0015736D03*
X0100970Y0037980D03*
X0110812Y0037980D03*
X0120655Y0037980D03*
D17*
X0173356Y0043213D03*
X0173356Y0031402D03*
X0173356Y0058961D03*
X0198946Y0063291D03*
D18*
X0211804Y0058846D03*
X0219678Y0058846D03*
X0072214Y0054756D03*
X0072214Y0063024D03*
D19*
X0097397Y0061815D03*
X0097397Y0056815D03*
X0097397Y0051815D03*
X0097397Y0046815D03*
X0121597Y0046815D03*
X0121597Y0051815D03*
X0121597Y0056815D03*
X0121597Y0061815D03*
D20*
X0044875Y0031976D03*
X0042316Y0031976D03*
X0039757Y0031976D03*
X0037198Y0031976D03*
X0034639Y0031976D03*
D21*
X0025253Y0021346D03*
X0054261Y0021346D03*
D22*
X0039757Y0021346D03*
D23*
X0047631Y0049606D03*
X0047631Y0060803D03*
D24*
X0057080Y0063226D03*
X0057080Y0050333D03*
D25*
X0065348Y0055795D03*
X0065348Y0062488D03*
X0151568Y0061701D03*
X0151568Y0055008D03*
X0256686Y0050283D03*
X0256686Y0043591D03*
D26*
X0235230Y0046937D03*
X0228537Y0046937D03*
X0139167Y0050874D03*
X0132474Y0050874D03*
X0132474Y0060717D03*
X0139167Y0060717D03*
D27*
X0215741Y0045756D03*
M02*
