G75*
%MOIN*%
%OFA0B0*%
%FSLAX25Y25*%
%IPPOS*%
%LPD*%
%AMOC8*
5,1,8,0,0,1.08239X$1,22.5*
%
%ADD10R,0.04537X0.18710*%
%ADD11R,0.06899X0.13986*%
%ADD12R,0.05324X0.02765*%
%ADD13R,0.05324X0.02883*%
%ADD14R,0.08474X0.08474*%
%ADD15R,0.03200X0.08600*%
%ADD16R,0.04537X0.05128*%
%ADD17C,0.03946*%
%ADD18R,0.10443X0.05324*%
%ADD19C,0.05324*%
%ADD20R,0.05324X0.05324*%
%ADD21R,0.08600X0.03200*%
%ADD22C,0.06600*%
%ADD23R,0.02175X0.06112*%
%ADD24R,0.07874X0.06693*%
%ADD25R,0.10630X0.06693*%
%ADD26C,0.09200*%
%ADD27R,0.07698X0.06899*%
%ADD28R,0.05403X0.04183*%
%ADD29R,0.04537X0.04931*%
%ADD30R,0.04931X0.04537*%
%ADD31OC8,0.06600*%
%ADD32R,0.06506X0.06899*%
%ADD33C,0.03300*%
D10*
X0072860Y0040205D03*
X0080734Y0040205D03*
D11*
X0090182Y0019732D03*
X0063411Y0019732D03*
D12*
X0078820Y0055087D03*
X0089057Y0055087D03*
X0078820Y0058827D03*
X0078820Y0062567D03*
X0089057Y0062567D03*
D13*
X0039261Y0062173D03*
X0039261Y0056268D03*
X0039261Y0050362D03*
D14*
X0027056Y0056268D03*
D15*
X0129989Y0041612D03*
X0134989Y0041612D03*
X0139989Y0041612D03*
X0144989Y0041612D03*
X0144989Y0017412D03*
X0139989Y0017412D03*
X0134989Y0017412D03*
X0129989Y0017412D03*
D16*
X0120655Y0015736D03*
X0110812Y0015736D03*
X0100970Y0015736D03*
X0100970Y0037980D03*
X0110812Y0037980D03*
X0120655Y0037980D03*
D17*
X0116718Y0026858D03*
X0104907Y0026858D03*
X0047238Y0030008D03*
X0032277Y0030008D03*
D18*
X0173356Y0031402D03*
X0173356Y0043213D03*
X0173356Y0058961D03*
X0198946Y0063291D03*
D19*
X0186151Y0052661D03*
X0186151Y0025102D03*
D20*
X0211804Y0058846D03*
X0219678Y0058846D03*
X0072214Y0054756D03*
X0072214Y0063024D03*
D21*
X0097397Y0061815D03*
X0097397Y0056815D03*
X0097397Y0051815D03*
X0097397Y0046815D03*
X0121597Y0046815D03*
X0121597Y0051815D03*
X0121597Y0056815D03*
X0121597Y0061815D03*
D22*
X0017167Y0016150D02*
X0011167Y0016150D01*
X0011167Y0026150D02*
X0017167Y0026150D01*
X0017167Y0036150D02*
X0011167Y0036150D01*
X0011167Y0046150D02*
X0017167Y0046150D01*
X0017167Y0056150D02*
X0011167Y0056150D01*
X0011167Y0066150D02*
X0017167Y0066150D01*
X0028458Y0070315D02*
X0028458Y0076315D01*
X0038458Y0076315D02*
X0038458Y0070315D01*
X0049009Y0070315D02*
X0049009Y0076315D01*
X0059009Y0076315D02*
X0059009Y0070315D01*
X0069009Y0070315D02*
X0069009Y0076315D01*
X0079009Y0076315D02*
X0079009Y0070315D01*
X0089009Y0070315D02*
X0089009Y0076315D01*
X0099009Y0076315D02*
X0099009Y0070315D01*
X0109167Y0070315D02*
X0109167Y0076315D01*
X0119167Y0076315D02*
X0119167Y0070315D01*
X0129245Y0070315D02*
X0129245Y0076315D01*
X0139245Y0076315D02*
X0139245Y0070315D01*
X0149403Y0070709D02*
X0149403Y0076709D01*
X0159403Y0076709D02*
X0159403Y0070709D01*
X0169403Y0070709D02*
X0169403Y0076709D01*
X0179403Y0076709D02*
X0179403Y0070709D01*
X0189403Y0070709D02*
X0189403Y0076709D01*
X0199403Y0076709D02*
X0199403Y0070709D01*
X0209560Y0070709D02*
X0209560Y0076709D01*
X0219560Y0076709D02*
X0219560Y0070709D01*
X0229639Y0070709D02*
X0229639Y0076709D01*
X0239639Y0076709D02*
X0239639Y0070709D01*
X0249805Y0070717D02*
X0249805Y0076717D01*
X0259805Y0076717D02*
X0259805Y0070717D01*
X0269805Y0070717D02*
X0269805Y0076717D01*
X0279805Y0076717D02*
X0279805Y0070717D01*
X0161600Y0039174D02*
X0155600Y0039174D01*
X0155600Y0031792D02*
X0161600Y0031792D01*
X0161600Y0024410D02*
X0155600Y0024410D01*
X0155600Y0017028D02*
X0161600Y0017028D01*
X0017167Y0076150D02*
X0011167Y0076150D01*
D23*
X0034639Y0031976D03*
X0037198Y0031976D03*
X0039757Y0031976D03*
X0042316Y0031976D03*
X0044875Y0031976D03*
D24*
X0054261Y0021346D03*
X0025253Y0021346D03*
D25*
X0039757Y0021346D03*
D26*
X0217316Y0018197D03*
X0217316Y0031976D03*
X0276371Y0031583D03*
X0276371Y0017803D03*
X0276371Y0046937D03*
X0276371Y0060717D03*
D27*
X0047631Y0060803D03*
X0047631Y0049606D03*
D28*
X0057080Y0050333D03*
X0057080Y0063226D03*
D29*
X0065348Y0062488D03*
X0065348Y0055795D03*
X0151568Y0055008D03*
X0151568Y0061701D03*
X0256686Y0050283D03*
X0256686Y0043591D03*
D30*
X0235230Y0046937D03*
X0228537Y0046937D03*
X0139167Y0050874D03*
X0132474Y0050874D03*
X0132474Y0060717D03*
X0139167Y0060717D03*
D31*
X0289757Y0073709D03*
D32*
X0215741Y0045756D03*
D33*
X0206362Y0048217D03*
X0202612Y0046967D03*
X0193862Y0044467D03*
X0181362Y0035717D03*
X0153862Y0044467D03*
X0150112Y0041967D03*
X0145112Y0048217D03*
X0151362Y0050717D03*
X0155112Y0049467D03*
X0143862Y0053217D03*
X0138862Y0055717D03*
X0143862Y0059467D03*
X0160112Y0054467D03*
X0156362Y0065717D03*
X0146362Y0065717D03*
X0136362Y0065717D03*
X0110112Y0061967D03*
X0103862Y0059467D03*
X0111362Y0056967D03*
X0111362Y0050717D03*
X0108862Y0043217D03*
X0116362Y0041967D03*
X0123862Y0043217D03*
X0142612Y0035717D03*
X0135112Y0034467D03*
X0132612Y0031967D03*
X0125112Y0034467D03*
X0088862Y0039467D03*
X0085112Y0045717D03*
X0081362Y0051967D03*
X0051362Y0040717D03*
X0043862Y0044467D03*
X0027612Y0049467D03*
X0023862Y0049467D03*
X0021362Y0043217D03*
X0035112Y0036967D03*
X0175112Y0024467D03*
X0240112Y0040717D03*
X0243862Y0040717D03*
X0247612Y0040717D03*
X0210112Y0053217D03*
X0202612Y0058217D03*
X0208862Y0063217D03*
X0253862Y0054467D03*
M02*
