%
M48
M72
T01C0.0130
T02C0.0335
T03C0.0394
T04C0.0400
T05C0.0472
%
T01
X3511Y3697
X5136Y4072
X4386Y4447
X2761Y4947
X2386Y4947
X2136Y4322
X8136Y5197
X8511Y4572
X8886Y3947
X10886Y4322
X11636Y4197
X12386Y4322
X14511Y4822
X15136Y5072
X15511Y4947
X15386Y4447
X15011Y4197
X14261Y3572
X13511Y3447
X13261Y3197
X12511Y3447
X17511Y2447
X18136Y3572
X19386Y4447
X20261Y4697
X20636Y4822
X21011Y5322
X20261Y5822
X20886Y6322
X25386Y5447
X24761Y4072
X24386Y4072
X24011Y4072
X16011Y5447
X14386Y5322
X13886Y5572
X14386Y5947
X14636Y6572
X13636Y6572
X15636Y6572
X11136Y5697
X10386Y5947
X11011Y6197
X11136Y5072
T02
X4724Y3001
X3228Y3001
X10491Y2686
X11672Y2686
T03
X21732Y3198
X21732Y1820
X27637Y1780
X27637Y3158
X27637Y4694
X27637Y6072
T04
X1417Y1615
X1417Y2615
X1417Y3615
X1417Y4615
X1417Y5615
X1417Y6615
X2846Y7331
X3846Y7331
X4901Y7331
X5901Y7331
X6901Y7331
X7901Y7331
X8901Y7331
X9901Y7331
X10917Y7331
X11917Y7331
X12925Y7331
X13925Y7331
X14940Y7371
X15940Y7371
X16940Y7371
X17940Y7371
X18940Y7371
X19940Y7371
X20956Y7371
X21956Y7371
X22964Y7371
X23964Y7371
X24981Y7372
X25981Y7372
X26981Y7372
X27981Y7372
X28976Y7371
X15860Y3917
X15860Y3179
X15860Y2441
X15860Y1703
X1417Y7615
T05
X18615Y5266
X18615Y2510
M30
