G75*
%MOIN*%
%OFA0B0*%
%FSLAX25Y25*%
%IPPOS*%
%LPD*%
%AMOC8*
5,1,8,0,0,1.08239X$1,22.5*
%
%ADD10C,0.06000*%
%ADD11C,0.08600*%
%ADD12OC8,0.06000*%
%ADD13C,0.00600*%
%ADD14C,0.02700*%
D10*
X0011167Y0016150D02*
X0017167Y0016150D01*
X0017167Y0026150D02*
X0011167Y0026150D01*
X0011167Y0036150D02*
X0017167Y0036150D01*
X0017167Y0046150D02*
X0011167Y0046150D01*
X0011167Y0056150D02*
X0017167Y0056150D01*
X0017167Y0066150D02*
X0011167Y0066150D01*
X0028458Y0070315D02*
X0028458Y0076315D01*
X0038458Y0076315D02*
X0038458Y0070315D01*
X0049009Y0070315D02*
X0049009Y0076315D01*
X0059009Y0076315D02*
X0059009Y0070315D01*
X0069009Y0070315D02*
X0069009Y0076315D01*
X0079009Y0076315D02*
X0079009Y0070315D01*
X0089009Y0070315D02*
X0089009Y0076315D01*
X0099009Y0076315D02*
X0099009Y0070315D01*
X0109167Y0070315D02*
X0109167Y0076315D01*
X0119167Y0076315D02*
X0119167Y0070315D01*
X0129245Y0070315D02*
X0129245Y0076315D01*
X0139245Y0076315D02*
X0139245Y0070315D01*
X0149403Y0070709D02*
X0149403Y0076709D01*
X0159403Y0076709D02*
X0159403Y0070709D01*
X0169403Y0070709D02*
X0169403Y0076709D01*
X0179403Y0076709D02*
X0179403Y0070709D01*
X0189403Y0070709D02*
X0189403Y0076709D01*
X0199403Y0076709D02*
X0199403Y0070709D01*
X0209560Y0070709D02*
X0209560Y0076709D01*
X0219560Y0076709D02*
X0219560Y0070709D01*
X0229639Y0070709D02*
X0229639Y0076709D01*
X0239639Y0076709D02*
X0239639Y0070709D01*
X0249805Y0070717D02*
X0249805Y0076717D01*
X0259805Y0076717D02*
X0259805Y0070717D01*
X0269805Y0070717D02*
X0269805Y0076717D01*
X0279805Y0076717D02*
X0279805Y0070717D01*
X0161600Y0039174D02*
X0155600Y0039174D01*
X0155600Y0031792D02*
X0161600Y0031792D01*
X0161600Y0024410D02*
X0155600Y0024410D01*
X0155600Y0017028D02*
X0161600Y0017028D01*
X0017167Y0076150D02*
X0011167Y0076150D01*
D11*
X0217316Y0031976D03*
X0217316Y0018197D03*
X0276371Y0017803D03*
X0276371Y0031583D03*
X0276371Y0046937D03*
X0276371Y0060717D03*
D12*
X0289757Y0073709D03*
D13*
X0288862Y0073217D01*
X0288862Y0053217D01*
X0256362Y0053217D01*
X0255112Y0051967D01*
X0211362Y0051967D01*
X0210112Y0053217D01*
X0202612Y0050717D02*
X0272612Y0050717D01*
X0276362Y0046967D01*
X0276371Y0046937D01*
X0265112Y0043217D02*
X0276362Y0031967D01*
X0276371Y0031583D01*
X0247612Y0040717D02*
X0231362Y0024467D01*
X0192612Y0024467D01*
X0186362Y0018217D01*
X0158862Y0018217D01*
X0158600Y0017028D01*
X0158600Y0024410D02*
X0158862Y0024467D01*
X0175112Y0024467D01*
X0158862Y0031967D02*
X0158600Y0031792D01*
X0158862Y0031967D02*
X0177612Y0031967D01*
X0181362Y0035717D01*
X0183862Y0038217D01*
X0241362Y0038217D01*
X0243862Y0040717D01*
X0240112Y0040717D02*
X0238862Y0039467D01*
X0158862Y0039467D01*
X0158600Y0039174D01*
X0150112Y0041967D02*
X0143862Y0035717D01*
X0142612Y0035717D01*
X0135112Y0034467D02*
X0145112Y0044467D01*
X0153862Y0044467D01*
X0193862Y0044467D01*
X0202612Y0046967D02*
X0151362Y0046967D01*
X0147612Y0050717D01*
X0143862Y0050717D01*
X0141362Y0048217D01*
X0083862Y0048217D01*
X0082612Y0046967D01*
X0026362Y0046967D01*
X0023862Y0049467D01*
X0027612Y0049467D02*
X0027612Y0056967D01*
X0037612Y0066967D01*
X0050112Y0054467D01*
X0115112Y0054467D01*
X0117612Y0051967D01*
X0142612Y0051967D01*
X0143862Y0053217D01*
X0142612Y0055717D02*
X0140112Y0053217D01*
X0118862Y0053217D01*
X0112612Y0059467D01*
X0103862Y0059467D01*
X0110112Y0061967D02*
X0111362Y0060717D01*
X0133862Y0060717D01*
X0138862Y0055717D01*
X0142612Y0055717D02*
X0146362Y0055717D01*
X0151362Y0050717D01*
X0155112Y0049467D02*
X0160112Y0054467D01*
X0175112Y0056967D02*
X0183862Y0048217D01*
X0200112Y0048217D01*
X0202612Y0050717D01*
X0206362Y0048217D02*
X0211362Y0043217D01*
X0265112Y0043217D01*
X0257612Y0054467D02*
X0253862Y0058217D01*
X0202612Y0058217D01*
X0190112Y0055717D02*
X0186362Y0059467D01*
X0143862Y0059467D01*
X0142612Y0056967D02*
X0175112Y0056967D01*
X0190112Y0055717D02*
X0252612Y0055717D01*
X0253862Y0054467D01*
X0257612Y0054467D02*
X0282612Y0054467D01*
X0282612Y0061967D01*
X0280112Y0064467D01*
X0280112Y0073217D01*
X0279805Y0073717D01*
X0276371Y0060717D02*
X0160112Y0060717D01*
X0157612Y0063217D01*
X0130112Y0063217D01*
X0120112Y0073217D01*
X0119167Y0073315D01*
X0110112Y0073217D02*
X0109167Y0073315D01*
X0110112Y0073217D02*
X0121362Y0061967D01*
X0137612Y0061967D01*
X0142612Y0056967D01*
X0141362Y0065717D02*
X0136362Y0065717D01*
X0141362Y0065717D02*
X0148862Y0073217D01*
X0149403Y0073709D01*
X0161362Y0065717D02*
X0168862Y0073217D01*
X0169403Y0073709D01*
X0161362Y0065717D02*
X0156362Y0065717D01*
X0146362Y0065717D01*
X0161362Y0065717D02*
X0206362Y0065717D01*
X0208862Y0063217D01*
X0145112Y0048217D02*
X0143862Y0046967D01*
X0127612Y0046967D01*
X0126362Y0045717D01*
X0085112Y0045717D01*
X0056362Y0045717D01*
X0051362Y0040717D01*
X0043862Y0044467D02*
X0042612Y0044467D01*
X0035112Y0036967D01*
X0030112Y0034467D02*
X0125112Y0034467D01*
X0125112Y0039467D02*
X0132612Y0031967D01*
X0125112Y0039467D02*
X0088862Y0039467D01*
X0108862Y0043217D02*
X0110112Y0041967D01*
X0116362Y0041967D01*
X0123862Y0043217D02*
X0126362Y0045717D01*
X0111362Y0050717D02*
X0110112Y0051967D01*
X0081362Y0051967D01*
X0093862Y0065717D02*
X0102612Y0056967D01*
X0111362Y0056967D01*
X0093862Y0065717D02*
X0057612Y0065717D01*
X0050112Y0073217D01*
X0049009Y0073315D01*
X0038458Y0073315D02*
X0037612Y0073217D01*
X0037612Y0066967D01*
X0028458Y0073315D02*
X0027612Y0073217D01*
X0027612Y0059467D01*
X0015112Y0046967D01*
X0014167Y0046150D01*
X0021362Y0043217D02*
X0030112Y0034467D01*
X0090112Y0069467D02*
X0093862Y0065717D01*
X0090112Y0069467D02*
X0090112Y0073217D01*
X0089009Y0073315D01*
D14*
X0110112Y0061967D03*
X0103862Y0059467D03*
X0111362Y0056967D03*
X0111362Y0050717D03*
X0108862Y0043217D03*
X0116362Y0041967D03*
X0123862Y0043217D03*
X0145112Y0048217D03*
X0151362Y0050717D03*
X0155112Y0049467D03*
X0153862Y0044467D03*
X0150112Y0041967D03*
X0142612Y0035717D03*
X0135112Y0034467D03*
X0132612Y0031967D03*
X0125112Y0034467D03*
X0088862Y0039467D03*
X0085112Y0045717D03*
X0081362Y0051967D03*
X0051362Y0040717D03*
X0043862Y0044467D03*
X0027612Y0049467D03*
X0023862Y0049467D03*
X0021362Y0043217D03*
X0035112Y0036967D03*
X0136362Y0065717D03*
X0146362Y0065717D03*
X0156362Y0065717D03*
X0143862Y0059467D03*
X0138862Y0055717D03*
X0143862Y0053217D03*
X0160112Y0054467D03*
X0193862Y0044467D03*
X0202612Y0046967D03*
X0206362Y0048217D03*
X0210112Y0053217D03*
X0202612Y0058217D03*
X0208862Y0063217D03*
X0253862Y0054467D03*
X0247612Y0040717D03*
X0243862Y0040717D03*
X0240112Y0040717D03*
X0181362Y0035717D03*
X0175112Y0024467D03*
M02*
