G75*
%MOIN*%
%OFA0B0*%
%FSLAX25Y25*%
%IPPOS*%
%LPD*%
%AMOC8*
5,1,8,0,0,1.08239X$1,22.5*
%
%ADD10R,0.03937X0.18110*%
%ADD11R,0.06299X0.13386*%
%ADD12R,0.04724X0.02165*%
%ADD13R,0.04724X0.02283*%
%ADD14R,0.07874X0.07874*%
%ADD15R,0.02600X0.08000*%
%ADD16R,0.03937X0.04528*%
%ADD17R,0.09843X0.04724*%
%ADD18R,0.04724X0.04724*%
%ADD19R,0.08000X0.02600*%
%ADD20C,0.06000*%
%ADD21R,0.07087X0.05906*%
%ADD22R,0.09843X0.05906*%
%ADD23R,0.01575X0.05512*%
%ADD24C,0.08600*%
%ADD25R,0.07098X0.06299*%
%ADD26R,0.04803X0.03583*%
%ADD27R,0.03937X0.04331*%
%ADD28R,0.04331X0.03937*%
%ADD29OC8,0.06000*%
%ADD30R,0.05906X0.06299*%
%ADD31C,0.00600*%
%ADD32C,0.02700*%
D10*
X0072860Y0040205D03*
X0080734Y0040205D03*
D11*
X0090182Y0019732D03*
X0063411Y0019732D03*
D12*
X0078820Y0055087D03*
X0089057Y0055087D03*
X0078820Y0058827D03*
X0078820Y0062567D03*
X0089057Y0062567D03*
D13*
X0039261Y0062173D03*
X0039261Y0056268D03*
X0039261Y0050362D03*
D14*
X0027056Y0056268D03*
D15*
X0129989Y0041612D03*
X0134989Y0041612D03*
X0139989Y0041612D03*
X0144989Y0041612D03*
X0144989Y0017412D03*
X0139989Y0017412D03*
X0134989Y0017412D03*
X0129989Y0017412D03*
D16*
X0120655Y0015736D03*
X0110812Y0015736D03*
X0100970Y0015736D03*
X0100970Y0037980D03*
X0110812Y0037980D03*
X0120655Y0037980D03*
D17*
X0173356Y0043213D03*
X0173356Y0031402D03*
X0173356Y0058961D03*
X0198946Y0063291D03*
D18*
X0211804Y0058846D03*
X0219678Y0058846D03*
X0072214Y0054756D03*
X0072214Y0063024D03*
D19*
X0097397Y0061815D03*
X0097397Y0056815D03*
X0097397Y0051815D03*
X0097397Y0046815D03*
X0121597Y0046815D03*
X0121597Y0051815D03*
X0121597Y0056815D03*
X0121597Y0061815D03*
D20*
X0017167Y0016150D02*
X0011167Y0016150D01*
X0011167Y0026150D02*
X0017167Y0026150D01*
X0017167Y0036150D02*
X0011167Y0036150D01*
X0011167Y0046150D02*
X0017167Y0046150D01*
X0017167Y0056150D02*
X0011167Y0056150D01*
X0011167Y0066150D02*
X0017167Y0066150D01*
X0028458Y0070315D02*
X0028458Y0076315D01*
X0038458Y0076315D02*
X0038458Y0070315D01*
X0049009Y0070315D02*
X0049009Y0076315D01*
X0059009Y0076315D02*
X0059009Y0070315D01*
X0069009Y0070315D02*
X0069009Y0076315D01*
X0079009Y0076315D02*
X0079009Y0070315D01*
X0089009Y0070315D02*
X0089009Y0076315D01*
X0099009Y0076315D02*
X0099009Y0070315D01*
X0109167Y0070315D02*
X0109167Y0076315D01*
X0119167Y0076315D02*
X0119167Y0070315D01*
X0129245Y0070315D02*
X0129245Y0076315D01*
X0139245Y0076315D02*
X0139245Y0070315D01*
X0149403Y0070709D02*
X0149403Y0076709D01*
X0159403Y0076709D02*
X0159403Y0070709D01*
X0169403Y0070709D02*
X0169403Y0076709D01*
X0179403Y0076709D02*
X0179403Y0070709D01*
X0189403Y0070709D02*
X0189403Y0076709D01*
X0199403Y0076709D02*
X0199403Y0070709D01*
X0209560Y0070709D02*
X0209560Y0076709D01*
X0219560Y0076709D02*
X0219560Y0070709D01*
X0229639Y0070709D02*
X0229639Y0076709D01*
X0239639Y0076709D02*
X0239639Y0070709D01*
X0249805Y0070717D02*
X0249805Y0076717D01*
X0259805Y0076717D02*
X0259805Y0070717D01*
X0269805Y0070717D02*
X0269805Y0076717D01*
X0279805Y0076717D02*
X0279805Y0070717D01*
X0161600Y0039174D02*
X0155600Y0039174D01*
X0155600Y0031792D02*
X0161600Y0031792D01*
X0161600Y0024410D02*
X0155600Y0024410D01*
X0155600Y0017028D02*
X0161600Y0017028D01*
X0017167Y0076150D02*
X0011167Y0076150D01*
D21*
X0025253Y0021346D03*
X0054261Y0021346D03*
D22*
X0039757Y0021346D03*
D23*
X0039757Y0031976D03*
X0037198Y0031976D03*
X0034639Y0031976D03*
X0042316Y0031976D03*
X0044875Y0031976D03*
D24*
X0217316Y0031976D03*
X0217316Y0018197D03*
X0276371Y0017803D03*
X0276371Y0031583D03*
X0276371Y0046937D03*
X0276371Y0060717D03*
D25*
X0047631Y0060803D03*
X0047631Y0049606D03*
D26*
X0057080Y0050333D03*
X0057080Y0063226D03*
D27*
X0065348Y0062488D03*
X0065348Y0055795D03*
X0151568Y0055008D03*
X0151568Y0061701D03*
X0256686Y0050283D03*
X0256686Y0043591D03*
D28*
X0235230Y0046937D03*
X0228537Y0046937D03*
X0139167Y0050874D03*
X0132474Y0050874D03*
X0132474Y0060717D03*
X0139167Y0060717D03*
D29*
X0289757Y0073709D03*
D30*
X0215741Y0045756D03*
D31*
X0216362Y0046967D01*
X0227612Y0046967D01*
X0228537Y0046937D01*
X0235230Y0046937D02*
X0236362Y0046967D01*
X0238862Y0049467D01*
X0238862Y0073217D01*
X0239639Y0073709D01*
X0229639Y0073709D02*
X0228862Y0073217D01*
X0228862Y0068217D01*
X0220112Y0059467D01*
X0219678Y0058846D01*
X0211804Y0058846D02*
X0211362Y0058217D01*
X0210112Y0056967D01*
X0210112Y0053217D01*
X0210112Y0039467D01*
X0216362Y0033217D01*
X0217316Y0031976D01*
X0215112Y0038217D02*
X0248862Y0038217D01*
X0252612Y0041967D01*
X0252612Y0045717D01*
X0253862Y0046967D01*
X0270112Y0046967D01*
X0270112Y0024467D01*
X0276362Y0018217D01*
X0276371Y0017803D01*
X0256362Y0043217D02*
X0231362Y0018217D01*
X0217612Y0018217D01*
X0217316Y0018197D01*
X0216362Y0018217D01*
X0208862Y0025717D01*
X0208862Y0040717D01*
X0202612Y0046967D01*
X0206362Y0048217D02*
X0206362Y0070717D01*
X0208862Y0073217D01*
X0209560Y0073709D01*
X0205112Y0068217D02*
X0200112Y0073217D01*
X0199403Y0073709D01*
X0189403Y0073709D02*
X0188862Y0074467D01*
X0180112Y0074467D01*
X0179403Y0073709D01*
X0178862Y0073217D01*
X0160112Y0054467D01*
X0151568Y0055008D02*
X0151362Y0054467D01*
X0151362Y0050717D01*
X0155112Y0049467D02*
X0150112Y0044467D01*
X0150112Y0041967D01*
X0144989Y0041612D02*
X0143862Y0041967D01*
X0143862Y0046967D01*
X0145112Y0048217D01*
X0146362Y0049467D01*
X0146362Y0065717D01*
X0148862Y0064467D02*
X0148862Y0073217D01*
X0149403Y0073709D01*
X0142612Y0070717D02*
X0140112Y0073217D01*
X0139245Y0073315D01*
X0142612Y0070717D02*
X0142612Y0060717D01*
X0143862Y0059467D01*
X0143862Y0053217D01*
X0138862Y0051967D02*
X0139167Y0050874D01*
X0140112Y0050717D01*
X0143862Y0046967D01*
X0153862Y0044467D02*
X0157612Y0048217D01*
X0157612Y0063217D01*
X0158862Y0064467D01*
X0158862Y0073217D01*
X0159403Y0073709D01*
X0156362Y0065717D02*
X0152612Y0061967D01*
X0151568Y0061701D01*
X0148862Y0064467D02*
X0147612Y0063217D01*
X0147612Y0020717D01*
X0145112Y0018217D01*
X0144989Y0017412D01*
X0137612Y0020717D02*
X0135112Y0018217D01*
X0134989Y0017412D01*
X0129989Y0017412D02*
X0128862Y0018217D01*
X0128862Y0020717D01*
X0117612Y0031967D01*
X0117612Y0040717D01*
X0116362Y0041967D01*
X0108862Y0043217D02*
X0108862Y0060717D01*
X0110112Y0061967D01*
X0112612Y0061967D02*
X0112612Y0063217D01*
X0111362Y0064467D01*
X0106362Y0064467D01*
X0106362Y0046967D01*
X0097612Y0046967D01*
X0097397Y0046815D01*
X0100112Y0044467D02*
X0091362Y0044467D01*
X0091362Y0029467D01*
X0070112Y0029467D01*
X0068862Y0030717D01*
X0068862Y0044467D01*
X0052612Y0060717D01*
X0052612Y0066967D01*
X0058862Y0073217D01*
X0059009Y0073315D01*
X0060112Y0073217D01*
X0068862Y0073217D01*
X0069009Y0073315D01*
X0079009Y0073315D02*
X0080112Y0073217D01*
X0082612Y0070717D01*
X0082612Y0059467D01*
X0083862Y0058217D01*
X0083862Y0045717D01*
X0085112Y0045717D01*
X0083862Y0045717D02*
X0083862Y0043217D01*
X0081362Y0040717D01*
X0080734Y0040205D01*
X0077612Y0044467D02*
X0073862Y0040717D01*
X0072860Y0040205D01*
X0077612Y0044467D02*
X0077612Y0054467D01*
X0078820Y0055087D01*
X0078862Y0054467D01*
X0081362Y0051967D01*
X0085112Y0053217D02*
X0085112Y0058217D01*
X0088862Y0061967D01*
X0089057Y0062567D01*
X0082612Y0059467D02*
X0078862Y0059467D01*
X0078820Y0058827D01*
X0078820Y0062567D02*
X0077612Y0063217D01*
X0072612Y0063217D01*
X0072214Y0063024D01*
X0065348Y0062488D02*
X0065112Y0063217D01*
X0057612Y0063217D01*
X0057080Y0063226D01*
X0053862Y0056967D02*
X0048862Y0061967D01*
X0047631Y0060803D01*
X0039261Y0062173D02*
X0038862Y0063217D01*
X0038862Y0073217D01*
X0038458Y0073315D01*
X0028862Y0061967D02*
X0015112Y0075717D01*
X0014167Y0076150D01*
X0014167Y0066150D02*
X0015112Y0065717D01*
X0021362Y0059467D01*
X0021362Y0051967D01*
X0023862Y0049467D01*
X0021362Y0049467D02*
X0021362Y0043217D01*
X0040112Y0049467D02*
X0041362Y0048217D01*
X0041362Y0038217D01*
X0045112Y0034467D01*
X0044875Y0031976D01*
X0045112Y0033217D01*
X0045112Y0034467D01*
X0051362Y0040717D01*
X0052612Y0044467D02*
X0068862Y0028217D01*
X0100112Y0028217D01*
X0100112Y0036967D01*
X0100970Y0037980D01*
X0101362Y0036967D01*
X0101362Y0035717D01*
X0120112Y0016967D01*
X0120655Y0015736D01*
X0137612Y0020717D02*
X0137612Y0035717D01*
X0142612Y0035717D01*
X0137612Y0035717D02*
X0137612Y0039467D01*
X0138862Y0040717D01*
X0139989Y0041612D01*
X0135112Y0040717D02*
X0134989Y0041612D01*
X0135112Y0040717D02*
X0135112Y0034467D01*
X0132612Y0031967D02*
X0132612Y0050717D01*
X0132474Y0050874D01*
X0136362Y0054467D02*
X0138862Y0051967D01*
X0136362Y0054467D02*
X0136362Y0056967D01*
X0132612Y0060717D01*
X0132474Y0060717D01*
X0138862Y0060717D02*
X0139167Y0060717D01*
X0138862Y0060717D02*
X0138862Y0055717D01*
X0121597Y0056815D02*
X0121362Y0056967D01*
X0111362Y0056967D01*
X0103862Y0059467D02*
X0097612Y0059467D01*
X0097612Y0060717D01*
X0097397Y0061815D01*
X0106362Y0064467D02*
X0106362Y0066967D01*
X0100112Y0073217D01*
X0099009Y0073315D01*
X0127612Y0071967D02*
X0128862Y0073217D01*
X0129245Y0073315D01*
X0127612Y0071967D02*
X0127612Y0045717D01*
X0126362Y0044467D01*
X0126362Y0035717D01*
X0125112Y0034467D01*
X0113862Y0034467D02*
X0105112Y0034467D01*
X0105112Y0039467D01*
X0100112Y0044467D01*
X0091362Y0044467D02*
X0091362Y0048217D01*
X0092612Y0049467D01*
X0102612Y0049467D01*
X0102612Y0053217D01*
X0100112Y0055717D01*
X0097612Y0055717D01*
X0097397Y0056815D01*
X0087612Y0050717D02*
X0085112Y0053217D01*
X0087612Y0050717D02*
X0087612Y0040717D01*
X0088862Y0039467D01*
X0110812Y0037980D02*
X0111362Y0038217D01*
X0111362Y0050717D01*
X0113862Y0050717D02*
X0113862Y0034467D01*
X0128862Y0041967D02*
X0129989Y0041612D01*
X0128862Y0041967D02*
X0128862Y0063217D01*
X0131362Y0065717D01*
X0136362Y0065717D01*
X0121597Y0061815D02*
X0121362Y0061967D01*
X0112612Y0061967D01*
X0121597Y0051815D02*
X0121362Y0050717D01*
X0113862Y0050717D01*
X0121597Y0046815D02*
X0122612Y0045717D01*
X0123862Y0044467D01*
X0123862Y0043217D01*
X0158600Y0039174D02*
X0158862Y0039467D01*
X0158862Y0046967D01*
X0178862Y0046967D01*
X0180112Y0045717D01*
X0180112Y0038217D01*
X0173862Y0031967D01*
X0173356Y0031402D01*
X0166362Y0035717D02*
X0166362Y0023217D01*
X0161362Y0018217D01*
X0158862Y0018217D01*
X0158600Y0017028D01*
X0175112Y0024467D02*
X0191362Y0040717D01*
X0191362Y0055717D01*
X0198862Y0063217D01*
X0198946Y0063291D01*
X0200112Y0063217D01*
X0200112Y0060717D01*
X0202612Y0058217D01*
X0205112Y0055717D02*
X0193862Y0044467D01*
X0211362Y0041967D02*
X0215112Y0038217D01*
X0211362Y0041967D02*
X0211362Y0049467D01*
X0215112Y0053217D01*
X0215112Y0069467D01*
X0218862Y0073217D01*
X0219560Y0073709D01*
X0205112Y0068217D02*
X0205112Y0055717D01*
X0211362Y0059467D02*
X0211804Y0058846D01*
X0211362Y0059467D02*
X0208862Y0061967D01*
X0208862Y0063217D01*
X0181362Y0050717D02*
X0173862Y0058217D01*
X0173356Y0058961D01*
X0181362Y0050717D02*
X0181362Y0035717D01*
X0172612Y0041967D02*
X0166362Y0035717D01*
X0172612Y0041967D02*
X0173356Y0043213D01*
X0240112Y0040717D02*
X0240112Y0064467D01*
X0248862Y0073217D01*
X0249805Y0073717D01*
X0258862Y0073217D02*
X0259805Y0073717D01*
X0258862Y0073217D02*
X0243862Y0058217D01*
X0243862Y0040717D01*
X0247612Y0040717D02*
X0247612Y0051967D01*
X0268862Y0073217D01*
X0269805Y0073717D01*
X0253862Y0054467D02*
X0253862Y0053217D01*
X0256362Y0050717D01*
X0256686Y0050283D01*
X0256686Y0043591D02*
X0256362Y0043217D01*
X0072214Y0054756D02*
X0071362Y0055717D01*
X0066362Y0055717D01*
X0065348Y0055795D01*
X0056362Y0050717D02*
X0053862Y0053217D01*
X0053862Y0056967D01*
X0052612Y0055717D02*
X0052612Y0044467D01*
X0047612Y0048217D02*
X0043862Y0044467D01*
X0047612Y0048217D02*
X0047612Y0049467D01*
X0047631Y0049606D01*
X0040112Y0049467D02*
X0039261Y0050362D01*
X0038862Y0050717D01*
X0035112Y0054467D01*
X0035112Y0061967D01*
X0028862Y0061967D01*
X0039261Y0056268D02*
X0040112Y0055717D01*
X0052612Y0055717D01*
X0056362Y0050717D02*
X0057080Y0050333D01*
X0027612Y0049467D02*
X0027612Y0029467D01*
X0030112Y0026967D01*
X0030112Y0016967D01*
X0015112Y0016967D01*
X0014167Y0016150D01*
X0034639Y0031976D02*
X0035112Y0033217D01*
X0035112Y0036967D01*
X0021362Y0049467D02*
X0015112Y0055717D01*
X0014167Y0056150D01*
D32*
X0023862Y0049467D03*
X0027612Y0049467D03*
X0043862Y0044467D03*
X0051362Y0040717D03*
X0035112Y0036967D03*
X0021362Y0043217D03*
X0081362Y0051967D03*
X0085112Y0045717D03*
X0088862Y0039467D03*
X0108862Y0043217D03*
X0116362Y0041967D03*
X0123862Y0043217D03*
X0145112Y0048217D03*
X0151362Y0050717D03*
X0155112Y0049467D03*
X0153862Y0044467D03*
X0150112Y0041967D03*
X0142612Y0035717D03*
X0135112Y0034467D03*
X0132612Y0031967D03*
X0125112Y0034467D03*
X0175112Y0024467D03*
X0181362Y0035717D03*
X0193862Y0044467D03*
X0202612Y0046967D03*
X0206362Y0048217D03*
X0210112Y0053217D03*
X0202612Y0058217D03*
X0208862Y0063217D03*
X0253862Y0054467D03*
X0247612Y0040717D03*
X0243862Y0040717D03*
X0240112Y0040717D03*
X0160112Y0054467D03*
X0143862Y0053217D03*
X0138862Y0055717D03*
X0143862Y0059467D03*
X0146362Y0065717D03*
X0136362Y0065717D03*
X0156362Y0065717D03*
X0111362Y0056967D03*
X0103862Y0059467D03*
X0110112Y0061967D03*
X0111362Y0050717D03*
M02*
